<?xml version="1.0" encoding="utf-8"?>
<!-- Svg Vector Icons : http://www.onlinewebfonts.com/icon -->
<!DOCTYPE svg PUBLIC "-//W3C//DTD SVG 1.1//EN" "http://www.w3.org/Graphics/SVG/1.1/DTD/svg11.dtd">
<svg version="1.1" xmlns="http://www.w3.org/2000/svg" xmlns:xlink="http://www.w3.org/1999/xlink" x="0px" y="0px" viewBox="0 0 256 256" enable-background="new 0 0 256 256" xml:space="preserve">
<metadata> Svg Vector Icons : http://www.onlinewebfonts.com/icon </metadata>
<g><g><g><path fill="#000000" d="M103.1,55.7c-25.9,2.1-51.6,15.3-68,34.8c-14.8,17.5-23.2,38.2-24.6,60.9l-0.4,6.1h14.5h14.4l0.4-4c1.9-21,10.7-38.9,25.3-51.2c6.1-5.1,8.8-6.9,15.3-10.2c10.2-5.1,20.5-7.5,32.3-7.5c19.9,0,36.9,7.1,51.2,21.4c11.3,11.4,17.8,23.8,20.5,39.4c0.5,2.9,0.9,5.8,0.9,6.6v1.4H168H151l23.8,23.8l23.8,23.8l23.7-23.6l23.6-23.7l-16-0.3l-16.1-0.3l-0.4-5.3c-1.9-23.5-12.9-46.5-30.5-63.6c-17.2-16.7-38.3-26.3-62.3-28.5C113.3,55,111.3,55,103.1,55.7z"/></g></g></g>
</svg>