<svg height="20" viewBox="0 0 20 20" width="20" xmlns="http://www.w3.org/2000/svg"><path d="m13.0068 2.99999901c.317.00290099.5979.20471099.7018.50417099l4.25 12.25003c.1358.3913-.0714.8186-.4627.9544-.3914.1357-.8187-.0714-.9544-.4628l-1.2996-3.745801h-4.6572l-1.38068 3.758601c-.10762.293-.38542.4887-.69751.4914-.3121.0027-.59325-.1882-.70591-.4793l-.879-2.270701h-2.66608l-.79868 2.250801c-.13852.3904-.56726.5945-.95763.456-.39036-.1385-.59453-.5672-.45601-.9576l2.75-7.75001c.10488-.29557.38259-.49467.69619-.49911.31359-.00445.59684.1867.71006.47917l2.2822 5.89565 3.81435-10.38351c.1093-.29753.3939-.49423.7108-.49139099zm-7.4762 7.40660099-.74283 2.0934h1.55318zm7.4492-4.4266-1.844 5.02h3.5857z" fill="#212121"/></svg>